  0
SECTION
  2
HEADER
  9
$INSBASE
 10
0.0000
 20
0.0000
  9
$EXTMIN
 10
-73.879036790187243
 20
-73.879036790187214
  9
$EXTMAX
 10
73.879036790187172
 20
73.879036790187214
  9
$LIMMIN
 10
-73.879036790187243
 20
-73.879036790187214
  9
$LIMMAX
 10
73.879036790187172
 20
73.879036790187214
  9
$TEXTSTYLE
  7
STANDARD
  9
$CLAYER
  8
default
  0
ENDSEC
  0
SECTION
  2
TABLES
  0
TABLE
  2
LTYPE
 70
4948253
  0
LTYPE
  2
CONTINUOUS
 70
    64
  3
Solid line
 72
    65
 73
     0
 40
0.0
  0
ENDTAB
  0
TABLE
  2
LAYER
 70
     5
  0
LAYER
  2
default
 70
    64
 62
     7
  6
CONTINUOUS
  0
ENDTAB
  0
TABLE
  2
STYLE
 70
     1
  0
STYLE
  2
STANDARD
 70
     0
 40
0.0
 41
1.0
 50
0.0
 71
     0
 42
0.2
  3
txt
  4

  0
ENDTAB
  0
TABLE
  2
VIEW
 70
     0
  0
ENDTAB
  0
ENDSEC
  0
SECTION
  2
BLOCKS
  0
ENDSEC
  0
SECTION
  2
ENTITIES
  0
LINE
  8
default
 10
-63.498031465550199
 20
-27
 30
0.0
 11
-61.498031465550199
 21
-27
 31
0.0
  0
LINE
  8
default
 10
-63.498031465550199
 20
27
 30
0.0
 11
-61.498031465550199
 21
27
 31
0.0
  0
LINE
  8
default
 10
-61.498031465550199
 20
-27
 30
0.0
 11
-61.498031465550199
 21
-18
 31
0.0
  0
LINE
  8
default
 10
-37.498031465550199
 20
-27
 30
0.0
 11
-61.498031465550199
 21
-27
 31
0.0
  0
LINE
  8
default
 10
-37.498031465550199
 20
-15
 30
0.0
 11
-37.498031465550199
 21
-27
 31
0.0
  0
LINE
  8
default
 10
-61.498031465550199
 20
27
 30
0.0
 11
-61.498031465550199
 21
18
 31
0.0
  0
LINE
  8
default
 10
-37.498031465550199
 20
27
 30
0.0
 11
-61.498031465550199
 21
27
 31
0.0
  0
LINE
  8
default
 10
-37.498031465550199
 20
15
 30
0.0
 11
-37.498031465550199
 21
27
 31
0.0
  0
LINE
  8
default
 10
-37.498031465550199
 20
-15
 30
0.0
 11
-27
 21
-15
 31
0.0
  0
LINE
  8
default
 10
-37.498031465550199
 20
15
 30
0.0
 11
-27
 21
15
 31
0.0
  0
LINE
  8
default
 10
-27
 20
-63.498031465550199
 30
0.0
 11
-27
 21
-61.498031465550199
 31
0.0
  0
LINE
  8
default
 10
-27
 20
-37.498031465550199
 30
0.0
 11
-27
 21
-61.498031465550199
 31
0.0
  0
LINE
  8
default
 10
-15
 20
-37.498031465550199
 30
0.0
 11
-27
 21
-37.498031465550199
 31
0.0
  0
LINE
  8
default
 10
-27
 20
-61.498031465550199
 30
0.0
 11
-18
 21
-61.498031465550199
 31
0.0
  0
LINE
  8
default
 10
-27
 20
37.498031465550199
 30
0.0
 11
-27
 21
61.498031465550199
 31
0.0
  0
LINE
  8
default
 10
-15
 20
37.498031465550199
 30
0.0
 11
-27
 21
37.498031465550199
 31
0.0
  0
LINE
  8
default
 10
-27
 20
63.498031465550199
 30
0.0
 11
-27
 21
61.498031465550199
 31
0.0
  0
LINE
  8
default
 10
-27
 20
61.498031465550199
 30
0.0
 11
-18
 21
61.498031465550199
 31
0.0
  0
LINE
  8
default
 10
27
 20
-63.498031465550199
 30
0.0
 11
27
 21
-61.498031465550199
 31
0.0
  0
LINE
  8
default
 10
15
 20
-37.498031465550199
 30
0.0
 11
15
 21
-27
 31
0.0
  0
LINE
  8
default
 10
15
 20
-37.498031465550199
 30
0.0
 11
27
 21
-37.498031465550199
 31
0.0
  0
LINE
  8
default
 10
15
 20
37.498031465550199
 30
0.0
 11
15
 21
27
 31
0.0
  0
LINE
  8
default
 10
27
 20
63.498031465550199
 30
0.0
 11
27
 21
61.498031465550199
 31
0.0
  0
LINE
  8
default
 10
27
 20
-37.498031465550199
 30
0.0
 11
27
 21
-61.498031465550199
 31
0.0
  0
LINE
  8
default
 10
27
 20
37.498031465550199
 30
0.0
 11
27
 21
61.498031465550199
 31
0.0
  0
LINE
  8
default
 10
37.498031465550199
 20
-15
 30
0.0
 11
37.498031465550199
 21
-27
 31
0.0
  0
LINE
  8
default
 10
37.498031465550199
 20
-27
 30
0.0
 11
61.498031465550199
 21
-27
 31
0.0
  0
LINE
  8
default
 10
63.498031465550199
 20
-27
 30
0.0
 11
61.498031465550199
 21
-27
 31
0.0
  0
LINE
  8
default
 10
37.498031465550199
 20
15
 30
0.0
 11
37.498031465550199
 21
27
 31
0.0
  0
LINE
  8
default
 10
63.498031465550199
 20
27
 30
0.0
 11
61.498031465550199
 21
27
 31
0.0
  0
LINE
  8
default
 10
37.498031465550199
 20
27
 30
0.0
 11
61.498031465550199
 21
27
 31
0.0
  0
LINE
  8
default
 10
61.498031465550199
 20
27
 30
0.0
 11
61.498031465550199
 21
18
 31
0.0
  0
LINE
  8
default
 10
15
 20
37.498031465550199
 30
0.0
 11
27
 21
37.498031465550199
 31
0.0
  0
LINE
  8
default
 10
-15
 20
58.498031465550199
 30
0.0
 11
-15
 21
37.498031465550199
 31
0.0
  0
LINE
  8
default
 10
15
 20
58.498031465550199
 30
0.0
 11
15
 21
37.498031465550199
 31
0.0
  0
LINE
  8
default
 10
18
 20
61.498031465550199
 30
0.0
 11
27
 21
61.498031465550199
 31
0.0
  0
LINE
  8
default
 10
58.498031465550199
 20
15
 30
0.0
 11
37.498031465550199
 21
15
 31
0.0
  0
LINE
  8
default
 10
58.498031465550199
 20
-15
 30
0.0
 11
37.498031465550199
 21
-15
 31
0.0
  0
LINE
  8
default
 10
61.498031465550199
 20
-18
 30
0.0
 11
61.498031465550199
 21
-27
 31
0.0
  0
LINE
  8
default
 10
18
 20
-61.498031465550199
 30
0.0
 11
27
 21
-61.498031465550199
 31
0.0
  0
LINE
  8
default
 10
15
 20
-58.498031465550199
 30
0.0
 11
15
 21
-37.498031465550199
 31
0.0
  0
LINE
  8
default
 10
-15
 20
-58.498031465550199
 30
0.0
 11
-15
 21
-37.498031465550199
 31
0.0
  0
LINE
  8
default
 10
-58.498031465550199
 20
-15
 30
0.0
 11
-37.498031465550199
 21
-15
 31
0.0
  0
LINE
  8
default
 10
-58.498031465550199
 20
15
 30
0.0
 11
-37.498031465550199
 21
15
 31
0.0
  0
LINE
  8
default
 10
27
 20
15
 30
0.0
 11
37.498031465550199
 21
15
 31
0.0
  0
LINE
  8
default
 10
-15
 20
27
 30
0.0
 11
-15
 21
37.498031465550199
 31
0.0
  0
LINE
  8
default
 10
-15
 20
-27
 30
0.0
 11
-15
 21
-37.498031465550199
 31
0.0
  0
LINE
  8
default
 10
27
 20
-15
 30
0.0
 11
37.498031465550199
 21
-15
 31
0.0
  0
ARC
  8
default
 10
0
 20
6.1232339957367663e-016
 30
0
 40
10
 50
360
 51
180
  0
ARC
  8
default
 10
0
 20
6.1232339957367663e-016
 30
0
 40
10
 50
180
 51
360
  0
ARC
  8
default
 10
-4.2632564145606011e-014
 20
8.7016749276681227e-014
 30
0
 40
69.000000000000028
 50
359.99999999999989
 51
23.035684105941275
  0
ARC
  8
default
 10
0
 20
7.1054273576010019e-015
 30
0
 40
69.000000000000014
 50
66.964315894058643
 51
113.03568410594136
  0
ARC
  8
default
 10
1.0658141036401503e-013
 20
3.5527136788005009e-014
 30
0
 40
69.000000000000099
 50
156.96431589405873
 51
180.00000000000003
  0
ARC
  8
default
 10
8.5265128291212022e-014
 20
-4.2176107008790413e-014
 30
0
 40
69.000000000000071
 50
179.99999999999997
 51
203.03568410594127
  0
ARC
  8
default
 10
0
 20
-7.1054273576010019e-015
 30
0
 40
69.000000000000014
 50
246.96431589405864
 51
293.03568410594136
  0
ARC
  8
default
 10
2.8421709430404007e-014
 20
-9.9475983006414026e-014
 30
0
 40
68.999999999999957
 50
336.9643158940587
 51
6.9306333056351182e-014
  0
ARC
  8
default
 10
-18
 20
58.498031465550199
 30
0
 40
3.0000000000000004
 50
0
 51
90
  0
ARC
  8
default
 10
18
 20
58.498031465550199
 30
0
 40
3.0000000000000004
 50
90
 51
180
  0
ARC
  8
default
 10
58.498031465550199
 20
18
 30
0
 40
3.0000000000000004
 50
270
 51
0
  0
ARC
  8
default
 10
58.498031465550199
 20
-18
 30
0
 40
3.0000000000000004
 50
0
 51
90
  0
ARC
  8
default
 10
18
 20
-58.498031465550199
 30
0
 40
3.0000000000000004
 50
180
 51
270
  0
ARC
  8
default
 10
-18
 20
-58.498031465550199
 30
0
 40
3.0000000000000004
 50
270
 51
0
  0
ARC
  8
default
 10
-58.498031465550199
 20
-18
 30
0
 40
3.0000000000000004
 50
90
 51
180
  0
ARC
  8
default
 10
-58.498031465550199
 20
18
 30
0
 40
3.0000000000000004
 50
180
 51
270
  0
ARC
  8
default
 10
27
 20
27
 30
0
 40
12.000000000000002
 50
180
 51
270
  0
ARC
  8
default
 10
-27
 20
27
 30
0
 40
12.000000000000002
 50
270
 51
0
  0
ARC
  8
default
 10
-27
 20
-27
 30
0
 40
12.000000000000002
 50
0
 51
90
  0
ARC
  8
default
 10
27
 20
-27
 30
0
 40
12.000000000000002
 50
90
 51
180
  0
ENDSEC
  0
EOF
