  0
SECTION
  2
HEADER
  9
$INSBASE
 10
0.0000
 20
0.0000
  9
$EXTMIN
 10
-112.42462120245887
 20
-112.42462120245881
  9
$EXTMAX
 10
112.42462120245887
 20
112.42462120245881
  9
$LIMMIN
 10
-112.42462120245887
 20
-112.42462120245881
  9
$LIMMAX
 10
112.42462120245887
 20
112.42462120245881
  9
$TEXTSTYLE
  7
STANDARD
  9
$CLAYER
  8
default
  0
ENDSEC
  0
SECTION
  2
TABLES
  0
TABLE
  2
LTYPE
 70
4948253
  0
LTYPE
  2
CONTINUOUS
 70
    64
  3
Solid line
 72
    65
 73
     0
 40
0.0
  0
ENDTAB
  0
TABLE
  2
LAYER
 70
     5
  0
LAYER
  2
default
 70
    64
 62
     7
  6
CONTINUOUS
  0
ENDTAB
  0
TABLE
  2
STYLE
 70
     1
  0
STYLE
  2
STANDARD
 70
     0
 40
0.0
 41
1.0
 50
0.0
 71
     0
 42
0.2
  3
txt
  4

  0
ENDTAB
  0
TABLE
  2
VIEW
 70
     0
  0
ENDTAB
  0
ENDSEC
  0
SECTION
  2
BLOCKS
  0
ENDSEC
  0
SECTION
  2
ENTITIES
  0
LINE
  8
default
 10
65.673287250244798
 20
24.228482035547302
 30
0.0
 11
67.601773763788202
 21
24.939947881183102
 31
0.0
  0
LINE
  8
default
 10
65.436878917837106
 20
30.166466379389799
 30
0.0
 11
63.570150702652001
 21
29.305902812268201
 31
0.0
  0
LINE
  8
default
 10
67.601773763788202
 20
24.939947881183102
 30
0.0
 11
68.26951964361362
 21
23.327866721889897
 31
0.0
  0
LINE
  8
default
 10
57.1647316675881
 20
40.400414024767699
 30
0.0
 11
58.843365685879299
 21
41.586766297518402
 31
0.0
  0
LINE
  8
default
 10
55.399515316058597
 20
46.074879479737398
 30
0.0
 11
53.8191245630412
 21
44.760494090971001
 31
0.0
  0
LINE
  8
default
 10
58.843365685879299
 20
41.586766297518402
 30
0.0
 11
59.905595982876804
 21
40.202440822670617
 31
0.0
  0
LINE
  8
default
 10
44.760494090971001
 20
53.8191245630412
 30
0.0
 11
46.074879479737398
 21
55.399515316058597
 31
0.0
  0
LINE
  8
default
 10
41.586766297518402
 20
58.843365685879299
 30
0.0
 11
40.400414024767699
 21
57.1647316675881
 31
0.0
  0
LINE
  8
default
 10
46.074879479737398
 20
55.399515316058597
 30
0.0
 11
47.459204954585182
 21
54.337285019061099
 31
0.0
  0
LINE
  8
default
 10
29.305902812268201
 20
63.570150702652001
 30
0.0
 11
30.166466379389799
 21
65.436878917837106
 31
0.0
  0
LINE
  8
default
 10
24.939947881183102
 20
67.601773763788202
 30
0.0
 11
24.228482035547302
 21
65.673287250244798
 31
0.0
  0
LINE
  8
default
 10
30.166466379389799
 20
65.436878917837106
 30
0.0
 11
31.778547538683092
 21
64.769133038011731
 31
0.0
  0
LINE
  8
default
 10
11.854162687203599
 20
68.988976126518295
 30
0.0
 11
12.2022584477296
 21
71.014827360920506
 31
0.0
  0
LINE
  8
default
 10
6.5935132319578003
 20
71.753232676908198
 30
0.0
 11
6.4054190350639404
 21
69.706316837035899
 31
0.0
  0
LINE
  8
default
 10
12.2022584477296
 20
71.014827360920506
 30
0.0
 11
13.932234624552548
 21
70.787071676475094
 31
0.0
  0
LINE
  8
default
 10
-6.4054190350639102
 20
69.706316837035899
 30
0.0
 11
-6.5935132319577798
 21
71.753232676908198
 31
0.0
  0
LINE
  8
default
 10
-12.2022584477296
 20
71.014827360920506
 30
0.0
 11
-11.8541626872035
 21
68.988976126518295
 31
0.0
  0
LINE
  8
default
 10
-6.5935132319577798
 20
71.753232676908198
 30
0.0
 11
-4.8635370551348682
 21
71.980988361353681
 31
0.0
  0
LINE
  8
default
 10
-24.228482035547302
 20
65.673287250244798
 30
0.0
 11
-24.939947881183102
 21
67.601773763788202
 31
0.0
  0
LINE
  8
default
 10
-30.166466379389799
 20
65.436878917837106
 30
0.0
 11
-29.305902812268201
 21
63.570150702652001
 31
0.0
  0
LINE
  8
default
 10
-24.939947881183102
 20
67.601773763788202
 30
0.0
 11
-23.327866721889897
 21
68.26951964361362
 31
0.0
  0
LINE
  8
default
 10
-40.400414024767699
 20
57.1647316675881
 30
0.0
 11
-41.586766297518402
 21
58.843365685879299
 31
0.0
  0
LINE
  8
default
 10
-46.074879479737398
 20
55.399515316058597
 30
0.0
 11
-44.760494090971001
 21
53.8191245630412
 31
0.0
  0
LINE
  8
default
 10
-41.586766297518402
 20
58.843365685879299
 30
0.0
 11
-40.202440822670617
 21
59.905595982876804
 31
0.0
  0
LINE
  8
default
 10
-53.8191245630412
 20
44.760494090971001
 30
0.0
 11
-55.399515316058597
 21
46.074879479737398
 31
0.0
  0
LINE
  8
default
 10
-58.843365685879299
 20
41.586766297518402
 30
0.0
 11
-57.1647316675881
 21
40.400414024767699
 31
0.0
  0
LINE
  8
default
 10
-55.399515316058597
 20
46.074879479737398
 30
0.0
 11
-54.337285019061099
 21
47.459204954585182
 31
0.0
  0
LINE
  8
default
 10
-63.570150702652001
 20
29.305902812268201
 30
0.0
 11
-65.436878917837106
 21
30.166466379389799
 31
0.0
  0
LINE
  8
default
 10
-67.601773763788202
 20
24.939947881183102
 30
0.0
 11
-65.673287250244798
 21
24.228482035547302
 31
0.0
  0
LINE
  8
default
 10
-65.436878917837106
 20
30.166466379389799
 30
0.0
 11
-64.769133038011731
 21
31.778547538683092
 31
0.0
  0
LINE
  8
default
 10
-68.988976126518295
 20
11.854162687203599
 30
0.0
 11
-71.014827360920506
 21
12.2022584477296
 31
0.0
  0
LINE
  8
default
 10
-71.753232676908198
 20
6.5935132319577896
 30
0.0
 11
-69.706316837035899
 21
6.4054190350639297
 31
0.0
  0
LINE
  8
default
 10
-71.014827360920506
 20
12.2022584477296
 30
0.0
 11
-70.787071676475094
 21
13.932234624552548
 31
0.0
  0
LINE
  8
default
 10
-69.706316837035899
 20
-6.4054190350639102
 30
0.0
 11
-71.753232676908198
 21
-6.5935132319577798
 31
0.0
  0
LINE
  8
default
 10
-71.014827360920506
 20
-12.2022584477296
 30
0.0
 11
-68.988976126518295
 21
-11.8541626872035
 31
0.0
  0
LINE
  8
default
 10
-71.753232676908198
 20
-6.5935132319577798
 30
0.0
 11
-71.980988361353681
 21
-4.8635370551348682
 31
0.0
  0
LINE
  8
default
 10
-65.673287250244798
 20
-24.228482035547199
 30
0.0
 11
-67.601773763788202
 21
-24.939947881183102
 31
0.0
  0
LINE
  8
default
 10
-65.436878917837106
 20
-30.166466379389799
 30
0.0
 11
-63.570150702652001
 21
-29.305902812268201
 31
0.0
  0
LINE
  8
default
 10
-67.601773763788202
 20
-24.939947881183102
 30
0.0
 11
-68.26951964361362
 21
-23.327866721889897
 31
0.0
  0
LINE
  8
default
 10
-57.1647316675881
 20
-40.400414024767699
 30
0.0
 11
-58.843365685879299
 21
-41.586766297518402
 31
0.0
  0
LINE
  8
default
 10
-55.399515316058597
 20
-46.074879479737398
 30
0.0
 11
-53.8191245630412
 21
-44.760494090971001
 31
0.0
  0
LINE
  8
default
 10
-58.843365685879299
 20
-41.586766297518402
 30
0.0
 11
-59.905595982876804
 21
-40.202440822670617
 31
0.0
  0
LINE
  8
default
 10
-44.7604940909711
 20
-53.8191245630412
 30
0.0
 11
-46.074879479737398
 21
-55.399515316058498
 31
0.0
  0
LINE
  8
default
 10
-41.586766297518402
 20
-58.843365685879299
 30
0.0
 11
-40.400414024767798
 21
-57.1647316675881
 31
0.0
  0
LINE
  8
default
 10
-46.074879479737398
 20
-55.399515316058498
 30
0.0
 11
-47.459204954585189
 21
-54.337285019061056
 31
0.0
  0
LINE
  8
default
 10
-29.305902812268201
 20
-63.570150702652001
 30
0.0
 11
-30.166466379389799
 21
-65.436878917837106
 31
0.0
  0
LINE
  8
default
 10
-24.939947881183102
 20
-67.601773763788202
 30
0.0
 11
-24.228482035547199
 21
-65.673287250244798
 31
0.0
  0
LINE
  8
default
 10
-30.166466379389799
 20
-65.436878917837106
 30
0.0
 11
-31.778547538682989
 21
-64.769133038011745
 31
0.0
  0
LINE
  8
default
 10
-11.854162687203599
 20
-68.988976126518295
 30
0.0
 11
-12.2022584477296
 21
-71.014827360920506
 31
0.0
  0
LINE
  8
default
 10
-6.5935132319578003
 20
-71.753232676908198
 30
0.0
 11
-6.4054190350639297
 21
-69.706316837035899
 31
0.0
  0
LINE
  8
default
 10
-12.2022584477296
 20
-71.014827360920506
 30
0.0
 11
-13.932234624552548
 21
-70.787071676475094
 31
0.0
  0
LINE
  8
default
 10
6.4054190350639599
 20
-69.706316837035899
 30
0.0
 11
6.5935132319578296
 21
-71.753232676908198
 31
0.0
  0
LINE
  8
default
 10
12.202258447729699
 20
-71.014827360920506
 30
0.0
 11
11.854162687203599
 21
-68.988976126518295
 31
0.0
  0
LINE
  8
default
 10
6.5935132319578296
 20
-71.753232676908198
 30
0.0
 11
4.8635370551349659
 21
-71.98098836135361
 31
0.0
  0
LINE
  8
default
 10
24.228482035547302
 20
-65.673287250244798
 30
0.0
 11
24.939947881183102
 21
-67.601773763788202
 31
0.0
  0
LINE
  8
default
 10
30.166466379389799
 20
-65.436878917837106
 30
0.0
 11
29.305902812268201
 21
-63.570150702652001
 31
0.0
  0
LINE
  8
default
 10
24.939947881183102
 20
-67.601773763788202
 30
0.0
 11
23.327866721889897
 21
-68.26951964361362
 31
0.0
  0
LINE
  8
default
 10
40.400414024767699
 20
-57.1647316675881
 30
0.0
 11
41.586766297518402
 21
-58.843365685879299
 31
0.0
  0
LINE
  8
default
 10
46.074879479737398
 20
-55.399515316058597
 30
0.0
 11
44.760494090971001
 21
-53.8191245630412
 31
0.0
  0
LINE
  8
default
 10
41.586766297518402
 20
-58.843365685879299
 30
0.0
 11
40.202440822670617
 21
-59.905595982876804
 31
0.0
  0
LINE
  8
default
 10
53.8191245630412
 20
-44.7604940909711
 30
0.0
 11
55.399515316058498
 21
-46.074879479737398
 31
0.0
  0
LINE
  8
default
 10
58.843365685879299
 20
-41.586766297518402
 30
0.0
 11
57.1647316675881
 21
-40.400414024767798
 31
0.0
  0
LINE
  8
default
 10
55.399515316058498
 20
-46.074879479737398
 30
0.0
 11
54.337285019061056
 21
-47.459204954585189
 31
0.0
  0
LINE
  8
default
 10
63.570150702652001
 20
-29.305902812268201
 30
0.0
 11
65.436878917837106
 21
-30.166466379389799
 31
0.0
  0
LINE
  8
default
 10
67.601773763788202
 20
-24.939947881183102
 30
0.0
 11
65.673287250244798
 21
-24.228482035547199
 31
0.0
  0
LINE
  8
default
 10
65.436878917837106
 20
-30.166466379389799
 30
0.0
 11
64.769133038011745
 21
-31.778547538682989
 31
0.0
  0
LINE
  8
default
 10
68.988976126518295
 20
-11.854162687203599
 30
0.0
 11
71.014827360920506
 21
-12.2022584477296
 31
0.0
  0
LINE
  8
default
 10
71.753232676908198
 20
-6.5935132319578003
 30
0.0
 11
69.706316837035899
 21
-6.4054190350639297
 31
0.0
  0
LINE
  8
default
 10
71.014827360920506
 20
-12.2022584477296
 30
0.0
 11
70.787071676475094
 21
-13.932234624552548
 31
0.0
  0
LINE
  8
default
 10
69.706316837035899
 20
6.4054190350639004
 30
0.0
 11
71.753232676908198
 21
6.5935132319577603
 31
0.0
  0
LINE
  8
default
 10
71.014827360920506
 20
12.2022584477296
 30
0.0
 11
68.988976126518295
 21
11.8541626872035
 31
0.0
  0
LINE
  8
default
 10
71.753232676908198
 20
6.5935132319577603
 30
0.0
 11
71.980988361353681
 21
4.8635370551348576
 31
0.0
  0
LINE
  8
default
 10
67.601773763788202
 20
24.939947881183102
 30
0.0
 11
65.436878917837106
 21
30.166466379389799
 31
0.0
  0
LINE
  8
default
 10
58.843365685879299
 20
41.586766297518402
 30
0.0
 11
55.399515316058597
 21
46.074879479737398
 31
0.0
  0
LINE
  8
default
 10
46.074879479737398
 20
55.399515316058597
 30
0.0
 11
41.586766297518402
 21
58.843365685879299
 31
0.0
  0
LINE
  8
default
 10
30.166466379389799
 20
65.436878917837106
 30
0.0
 11
24.939947881183102
 21
67.601773763788202
 31
0.0
  0
LINE
  8
default
 10
12.2022584477296
 20
71.014827360920506
 30
0.0
 11
6.5935132319578003
 21
71.753232676908198
 31
0.0
  0
LINE
  8
default
 10
-6.5935132319577798
 20
71.753232676908198
 30
0.0
 11
-12.2022584477296
 21
71.014827360920506
 31
0.0
  0
LINE
  8
default
 10
-24.939947881183102
 20
67.601773763788202
 30
0.0
 11
-30.166466379389799
 21
65.436878917837106
 31
0.0
  0
LINE
  8
default
 10
-41.586766297518402
 20
58.843365685879299
 30
0.0
 11
-46.074879479737398
 21
55.399515316058597
 31
0.0
  0
LINE
  8
default
 10
-55.399515316058597
 20
46.074879479737398
 30
0.0
 11
-58.843365685879299
 21
41.586766297518402
 31
0.0
  0
LINE
  8
default
 10
-65.436878917837106
 20
30.166466379389799
 30
0.0
 11
-67.601773763788202
 21
24.939947881183102
 31
0.0
  0
LINE
  8
default
 10
-71.014827360920506
 20
12.2022584477296
 30
0.0
 11
-71.753232676908198
 21
6.5935132319577896
 31
0.0
  0
LINE
  8
default
 10
-71.753232676908198
 20
-6.5935132319577798
 30
0.0
 11
-71.014827360920506
 21
-12.2022584477296
 31
0.0
  0
LINE
  8
default
 10
-67.601773763788202
 20
-24.939947881183102
 30
0.0
 11
-65.436878917837106
 21
-30.166466379389799
 31
0.0
  0
LINE
  8
default
 10
-58.843365685879299
 20
-41.586766297518402
 30
0.0
 11
-55.399515316058597
 21
-46.074879479737398
 31
0.0
  0
LINE
  8
default
 10
-46.074879479737398
 20
-55.399515316058498
 30
0.0
 11
-41.586766297518402
 21
-58.843365685879299
 31
0.0
  0
LINE
  8
default
 10
-30.166466379389799
 20
-65.436878917837106
 30
0.0
 11
-24.939947881183102
 21
-67.601773763788202
 31
0.0
  0
LINE
  8
default
 10
-12.2022584477296
 20
-71.014827360920506
 30
0.0
 11
-6.5935132319578003
 21
-71.753232676908198
 31
0.0
  0
LINE
  8
default
 10
6.5935132319578296
 20
-71.753232676908198
 30
0.0
 11
12.202258447729699
 21
-71.014827360920506
 31
0.0
  0
LINE
  8
default
 10
24.939947881183102
 20
-67.601773763788202
 30
0.0
 11
30.166466379389799
 21
-65.436878917837106
 31
0.0
  0
LINE
  8
default
 10
41.586766297518402
 20
-58.843365685879299
 30
0.0
 11
46.074879479737398
 21
-55.399515316058597
 31
0.0
  0
LINE
  8
default
 10
55.399515316058498
 20
-46.074879479737398
 30
0.0
 11
58.843365685879299
 21
-41.586766297518402
 31
0.0
  0
LINE
  8
default
 10
65.436878917837106
 20
-30.166466379389799
 30
0.0
 11
67.601773763788202
 21
-24.939947881183102
 31
0.0
  0
LINE
  8
default
 10
71.014827360920506
 20
-12.2022584477296
 30
0.0
 11
71.753232676908198
 21
-6.5935132319578003
 31
0.0
  0
LINE
  8
default
 10
71.753232676908198
 20
6.5935132319577603
 30
0.0
 11
71.014827360920506
 21
12.2022584477296
 31
0.0
  0
LINE
  8
default
 10
49.840630899265065
 20
76.362922104622925
 30
0.0
 11
39.973786020008532
 21
61.245515014493662
 31
0.0
  0
LINE
  8
default
 10
60.725294377660013
 20
69.367304859998768
 30
0.0
 11
51.286808559944596
 21
76.609709753588533
 31
0.0
  0
LINE
  8
default
 10
40.202440822670617
 20
59.905595982876804
 30
0.0
 11
41.586766297518402
 21
58.843365685879299
 31
0.0
  0
LINE
  8
default
 10
48.812647570043254
 20
54.463218004142526
 30
0.0
 11
60.861214135100646
 21
67.906531164497721
 31
0.0
  0
LINE
  8
default
 10
28.378174003784373
 20
86.660623128410606
 30
0.0
 11
22.760206578415801
 21
69.504601823705471
 31
0.0
  0
LINE
  8
default
 10
40.702550543187833
 20
82.720533968735481
 30
0.0
 11
29.711201011988663
 21
87.273300013341313
 31
0.0
  0
LINE
  8
default
 10
23.327866721889897
 20
68.26951964361362
 30
0.0
 11
24.939947881183102
 21
67.601773763788202
 31
0.0
  0
LINE
  8
default
 10
33.053278860408561
 20
65.241071686017492
 30
0.0
 11
41.211915000183154
 21
81.344713551718641
 31
0.0
  0
LINE
  8
default
 10
17.905995153342555
 20
90.436495389648684
 30
0.0
 11
6.1108242151469794
 21
91.989359103132415
 31
0.0
  0
LINE
  8
default
 10
4.9817914470957563
 20
91.052545899448205
 30
0.0
 11
3.9955566715238122
 21
73.027064880417015
 31
0.0
  0
LINE
  8
default
 10
4.8635370551349357
 20
71.98098836135361
 30
0.0
 11
6.5935132319578003
 21
71.753232676908198
 31
0.0
  0
LINE
  8
default
 10
15.04138381956297
 20
71.572854148459044
 30
0.0
 11
18.754091963912881
 21
89.239388138885019
 31
0.0
  0
LINE
  8
default
 10
-6.1108242151469394
 20
91.989359103132415
 30
0.0
 11
-17.905995153342555
 21
90.43649538964867
 31
0.0
  0
LINE
  8
default
 10
-18.754091963912881
 20
89.239388138885019
 30
0.0
 11
-15.04138381956297
 21
71.572854148459044
 31
0.0
  0
LINE
  8
default
 10
-3.9955566715237798
 20
73.027064880417086
 30
0.0
 11
-4.9817914470957163
 21
91.052545899448205
 31
0.0
  0
LINE
  8
default
 10
-13.932234624552548
 20
70.787071676475094
 30
0.0
 11
-12.2022584477296
 21
71.014827360920506
 31
0.0
  0
LINE
  8
default
 10
-29.711201011988663
 20
87.273300013341313
 30
0.0
 11
-40.702550543187833
 21
82.720533968735481
 31
0.0
  0
LINE
  8
default
 10
-41.211915000183147
 20
81.344713551718641
 30
0.0
 11
-33.053278860408469
 21
65.241071686017492
 31
0.0
  0
LINE
  8
default
 10
-31.778547538682989
 20
64.769133038011745
 30
0.0
 11
-30.166466379389799
 21
65.436878917837106
 31
0.0
  0
LINE
  8
default
 10
-22.760206578415801
 20
69.504601823705471
 30
0.0
 11
-28.378174003784373
 21
86.660623128410606
 31
0.0
  0
LINE
  8
default
 10
-51.286808559944596
 20
76.609709753588533
 30
0.0
 11
-60.725294377660013
 21
69.367304859998768
 31
0.0
  0
LINE
  8
default
 10
-60.861214135100646
 20
67.906531164497721
 30
0.0
 11
-48.812647570043254
 21
54.463218004142526
 31
0.0
  0
LINE
  8
default
 10
-47.459204954585182
 20
54.337285019061099
 30
0.0
 11
-46.074879479737398
 21
55.399515316058597
 31
0.0
  0
LINE
  8
default
 10
-39.973786020008532
 20
61.245515014493662
 30
0.0
 11
-49.840630899265065
 21
76.362922104622925
 31
0.0
  0
LINE
  8
default
 10
-69.367304859998768
 20
60.725294377660013
 30
0.0
 11
-76.609709753588533
 21
51.286808559944596
 31
0.0
  0
LINE
  8
default
 10
-76.362922104622925
 20
49.840630899265065
 30
0.0
 11
-61.245515014493662
 21
39.973786020008532
 31
0.0
  0
LINE
  8
default
 10
-54.463218004142526
 20
48.812647570043254
 30
0.0
 11
-67.906531164497721
 21
60.861214135100646
 31
0.0
  0
LINE
  8
default
 10
-59.905595982876804
 20
40.202440822670617
 30
0.0
 11
-58.843365685879299
 21
41.586766297518402
 31
0.0
  0
LINE
  8
default
 10
-82.720533968735481
 20
40.702550543187833
 30
0.0
 11
-87.273300013341313
 21
29.711201011988663
 31
0.0
  0
LINE
  8
default
 10
-65.241071686017492
 20
33.053278860408561
 30
0.0
 11
-81.344713551718641
 21
41.211915000183154
 31
0.0
  0
LINE
  8
default
 10
-86.660623128410606
 20
28.378174003784373
 30
0.0
 11
-69.504601823705471
 21
22.760206578415801
 31
0.0
  0
LINE
  8
default
 10
-68.26951964361362
 20
23.327866721889897
 30
0.0
 11
-67.601773763788202
 21
24.939947881183102
 31
0.0
  0
LINE
  8
default
 10
-71.572854148459044
 20
15.04138381956297
 30
0.0
 11
-89.239388138885019
 21
18.754091963912881
 31
0.0
  0
LINE
  8
default
 10
-90.436495389648684
 20
17.905995153342555
 30
0.0
 11
-91.989359103132415
 21
6.1108242151469589
 31
0.0
  0
LINE
  8
default
 10
-91.052545899448205
 20
4.9817914470957358
 30
0.0
 11
-73.027064880417015
 21
3.9955566715238016
 31
0.0
  0
LINE
  8
default
 10
-71.98098836135361
 20
4.8635370551349251
 30
0.0
 11
-71.753232676908198
 21
6.5935132319577896
 31
0.0
  0
LINE
  8
default
 10
-91.989359103132415
 20
-6.1108242151469394
 30
0.0
 11
-90.43649538964867
 21
-17.905995153342555
 31
0.0
  0
LINE
  8
default
 10
-73.027064880417086
 20
-3.9955566715237798
 30
0.0
 11
-91.052545899448205
 21
-4.9817914470957163
 31
0.0
  0
LINE
  8
default
 10
-89.239388138885019
 20
-18.754091963912881
 30
0.0
 11
-71.572854148459044
 21
-15.04138381956297
 31
0.0
  0
LINE
  8
default
 10
-70.787071676475094
 20
-13.932234624552548
 30
0.0
 11
-71.014827360920506
 21
-12.2022584477296
 31
0.0
  0
LINE
  8
default
 10
-69.504601823705471
 20
-22.760206578415801
 30
0.0
 11
-86.660623128410606
 21
-28.378174003784373
 31
0.0
  0
LINE
  8
default
 10
-87.273300013341313
 20
-29.711201011988663
 30
0.0
 11
-82.720533968735481
 21
-40.702550543187833
 31
0.0
  0
LINE
  8
default
 10
-64.769133038011745
 20
-31.778547538682989
 30
0.0
 11
-65.436878917837106
 21
-30.166466379389799
 31
0.0
  0
LINE
  8
default
 10
-81.344713551718641
 20
-41.211915000183147
 30
0.0
 11
-65.241071686017492
 21
-33.053278860408469
 31
0.0
  0
LINE
  8
default
 10
-61.245515014493662
 20
-39.973786020008532
 30
0.0
 11
-76.362922104622925
 21
-49.840630899265065
 31
0.0
  0
LINE
  8
default
 10
-76.609709753588533
 20
-51.286808559944596
 30
0.0
 11
-69.367304859998768
 21
-60.725294377660013
 31
0.0
  0
LINE
  8
default
 10
-54.337285019061099
 20
-47.459204954585182
 30
0.0
 11
-55.399515316058597
 21
-46.074879479737398
 31
0.0
  0
LINE
  8
default
 10
-67.906531164497721
 20
-60.861214135100646
 30
0.0
 11
-54.463218004142526
 21
-48.812647570043254
 31
0.0
  0
LINE
  8
default
 10
-48.812647570043239
 20
-54.463218004142504
 30
0.0
 11
-60.861214135100639
 21
-67.906531164497721
 31
0.0
  0
LINE
  8
default
 10
-60.725294377660006
 20
-69.367304859998768
 30
0.0
 11
-51.286808559944596
 21
-76.609709753588447
 31
0.0
  0
LINE
  8
default
 10
-49.840630899265065
 20
-76.362922104622839
 30
0.0
 11
-39.973786020008532
 21
-61.245515014493662
 31
0.0
  0
LINE
  8
default
 10
-40.202440822670617
 20
-59.905595982876804
 30
0.0
 11
-41.586766297518402
 21
-58.843365685879299
 31
0.0
  0
LINE
  8
default
 10
-33.053278860408469
 20
-65.241071686017492
 30
0.0
 11
-41.211915000183147
 21
-81.344713551718641
 31
0.0
  0
LINE
  8
default
 10
-40.702550543187833
 20
-82.720533968735481
 30
0.0
 11
-29.711201011988663
 21
-87.273300013341313
 31
0.0
  0
LINE
  8
default
 10
-23.327866721889897
 20
-68.26951964361362
 30
0.0
 11
-24.939947881183102
 21
-67.601773763788202
 31
0.0
  0
LINE
  8
default
 10
-28.378174003784373
 20
-86.660623128410606
 30
0.0
 11
-22.760206578415801
 21
-69.504601823705471
 31
0.0
  0
LINE
  8
default
 10
-15.04138381956297
 20
-71.572854148459044
 30
0.0
 11
-18.754091963912881
 21
-89.239388138885019
 31
0.0
  0
LINE
  8
default
 10
-4.8635370551349268
 20
-71.98098836135361
 30
0.0
 11
-6.5935132319578003
 21
-71.753232676908198
 31
0.0
  0
LINE
  8
default
 10
-17.905995153342555
 20
-90.436495389648684
 30
0.0
 11
-6.1108242151469696
 21
-91.989359103132415
 31
0.0
  0
LINE
  8
default
 10
-4.9817914470957465
 20
-91.052545899448205
 30
0.0
 11
-3.995556671523802
 21
-73.027064880417015
 31
0.0
  0
LINE
  8
default
 10
3.9955566715238424
 20
-73.027064880417015
 30
0.0
 11
4.9817914470957865
 21
-91.052545899448205
 31
0.0
  0
LINE
  8
default
 10
13.932234624552544
 20
-70.787071676475094
 30
0.0
 11
12.202258447729699
 21
-71.014827360920506
 31
0.0
  0
LINE
  8
default
 10
6.1108242151470105
 20
-91.989359103132415
 30
0.0
 11
17.905995153342555
 21
-90.436495389648684
 31
0.0
  0
LINE
  8
default
 10
18.754091963912881
 20
-89.239388138885019
 30
0.0
 11
15.04138381956297
 21
-71.572854148459058
 31
0.0
  0
LINE
  8
default
 10
22.760206578415801
 20
-69.504601823705471
 30
0.0
 11
28.378174003784373
 21
-86.660623128410606
 31
0.0
  0
LINE
  8
default
 10
29.711201011988663
 20
-87.273300013341313
 30
0.0
 11
40.702550543187833
 21
-82.720533968735481
 31
0.0
  0
LINE
  8
default
 10
41.211915000183154
 20
-81.344713551718641
 30
0.0
 11
33.053278860408561
 21
-65.241071686017492
 31
0.0
  0
LINE
  8
default
 10
31.778547538683092
 20
-64.769133038011731
 30
0.0
 11
30.166466379389799
 21
-65.436878917837106
 31
0.0
  0
LINE
  8
default
 10
39.973786020008532
 20
-61.245515014493662
 30
0.0
 11
49.840630899265065
 21
-76.362922104622925
 31
0.0
  0
LINE
  8
default
 10
51.286808559944596
 20
-76.609709753588533
 30
0.0
 11
60.725294377660013
 21
-69.367304859998768
 31
0.0
  0
LINE
  8
default
 10
60.861214135100646
 20
-67.906531164497721
 30
0.0
 11
48.812647570043254
 21
-54.463218004142526
 31
0.0
  0
LINE
  8
default
 10
47.459204954585182
 20
-54.337285019061099
 30
0.0
 11
46.074879479737398
 21
-55.399515316058597
 31
0.0
  0
LINE
  8
default
 10
59.905595982876804
 20
-40.202440822670617
 30
0.0
 11
58.843365685879299
 21
-41.586766297518402
 31
0.0
  0
LINE
  8
default
 10
54.463218004142504
 20
-48.812647570043239
 30
0.0
 11
67.906531164497721
 21
-60.861214135100639
 31
0.0
  0
LINE
  8
default
 10
69.367304859998768
 20
-60.725294377660006
 30
0.0
 11
76.609709753588447
 21
-51.286808559944596
 31
0.0
  0
LINE
  8
default
 10
76.362922104622839
 20
-49.840630899265065
 30
0.0
 11
61.245515014493662
 21
-39.973786020008532
 31
0.0
  0
LINE
  8
default
 10
68.26951964361362
 20
-23.327866721889897
 30
0.0
 11
67.601773763788202
 21
-24.939947881183102
 31
0.0
  0
LINE
  8
default
 10
65.241071686017492
 20
-33.053278860408469
 30
0.0
 11
81.344713551718641
 21
-41.211915000183147
 31
0.0
  0
LINE
  8
default
 10
82.720533968735481
 20
-40.702550543187833
 30
0.0
 11
87.273300013341313
 21
-29.711201011988663
 31
0.0
  0
LINE
  8
default
 10
86.660623128410606
 20
-28.378174003784373
 30
0.0
 11
69.504601823705471
 21
-22.760206578415801
 31
0.0
  0
LINE
  8
default
 10
71.98098836135361
 20
-4.8635370551349357
 30
0.0
 11
71.753232676908198
 21
-6.5935132319578003
 31
0.0
  0
LINE
  8
default
 10
71.572854148459044
 20
-15.04138381956297
 30
0.0
 11
89.239388138885019
 21
-18.754091963912881
 31
0.0
  0
LINE
  8
default
 10
90.436495389648684
 20
-17.905995153342555
 30
0.0
 11
91.989359103132415
 21
-6.1108242151469696
 31
0.0
  0
LINE
  8
default
 10
91.052545899448205
 20
-4.9817914470957465
 30
0.0
 11
73.027064880417015
 21
-3.9955566715238118
 31
0.0
  0
LINE
  8
default
 10
70.787071676475094
 20
13.932234624552445
 30
0.0
 11
71.014827360920506
 21
12.2022584477296
 31
0.0
  0
LINE
  8
default
 10
73.027064880417086
 20
3.99555667152377
 30
0.0
 11
91.052545899448205
 21
4.9817914470957065
 31
0.0
  0
LINE
  8
default
 10
91.989359103132415
 20
6.1108242151469305
 30
0.0
 11
90.436495389648684
 21
17.905995153342456
 31
0.0
  0
LINE
  8
default
 10
89.239388138885019
 20
18.754091963912781
 30
0.0
 11
71.572854148459058
 21
15.041383819562871
 31
0.0
  0
LINE
  8
default
 10
64.769133038011745
 20
31.778547538682989
 30
0.0
 11
65.436878917837106
 21
30.166466379389799
 31
0.0
  0
LINE
  8
default
 10
69.504601823705471
 20
22.760206578415801
 30
0.0
 11
86.660623128410606
 21
28.378174003784373
 31
0.0
  0
LINE
  8
default
 10
87.273300013341313
 20
29.711201011988663
 30
0.0
 11
82.720533968735481
 21
40.702550543187833
 31
0.0
  0
LINE
  8
default
 10
81.344713551718641
 20
41.211915000183147
 30
0.0
 11
65.241071686017492
 21
33.053278860408469
 31
0.0
  0
LINE
  8
default
 10
67.906531164497721
 20
60.861214135100646
 30
0.0
 11
54.463218004142526
 21
48.812647570043254
 31
0.0
  0
LINE
  8
default
 10
54.337285019061099
 20
47.459204954585182
 30
0.0
 11
55.399515316058597
 21
46.074879479737398
 31
0.0
  0
LINE
  8
default
 10
61.245515014493662
 20
39.973786020008532
 30
0.0
 11
76.362922104622925
 21
49.840630899265065
 31
0.0
  0
LINE
  8
default
 10
76.609709753588533
 20
51.286808559944596
 30
0.0
 11
69.367304859998768
 21
60.725294377660013
 31
0.0
  0
ARC
  8
default
 10
0
 20
-5.1025850211772195e-013
 30
0
 40
70.000000000000014
 50
4.1765226617160921e-013
 51
5.2502512965427677
  0
ARC
  8
default
 10
-7.1054273576010019e-014
 20
1.936228954946273e-013
 30
0
 40
70.000000000000014
 50
9.7497487034574171
 51
20.250251296542231
  0
ARC
  8
default
 10
-2.8421709430404007e-014
 20
0
 30
0
 40
70
 50
24.74974870345763
 51
35.250251296542331
  0
ARC
  8
default
 10
-4.2632564145606011e-014
 20
-4.9737991503207013e-014
 30
0
 40
70.000000000000028
 50
39.749748703457634
 51
50.25025129654238
  0
ARC
  8
default
 10
0
 20
-2.8421709430404007e-014
 30
0
 40
70
 50
54.749748703457669
 51
65.250251296542373
  0
ARC
  8
default
 10
1.1013412404281553e-013
 20
0
 30
0
 40
70
 50
69.749748703457698
 51
80.25025129654243
  0
ARC
  8
default
 10
1.5099033134902129e-014
 20
0
 30
0
 40
69.999999999999957
 50
84.749748703457641
 51
95.250251296542373
  0
ARC
  8
default
 10
-1.900701818158268e-013
 20
-8.5265128291212022e-014
 30
0
 40
70.000000000000028
 50
99.749748703457428
 51
110.25025129654225
  0
ARC
  8
default
 10
0
 20
-2.8421709430404007e-014
 30
0
 40
70
 50
114.74974870345763
 51
125.25025129654234
  0
ARC
  8
default
 10
2.1316282072803006e-014
 20
-2.8421709430404007e-014
 30
0
 40
70
 50
129.74974870345761
 51
140.25025129654236
  0
ARC
  8
default
 10
2.8421709430404007e-014
 20
0
 30
0
 40
70
 50
144.74974870345767
 51
155.25025129654239
  0
ARC
  8
default
 10
-2.8421709430404007e-014
 20
1.1723955140041653e-013
 30
0
 40
69.999999999999972
 50
159.7497487034577
 51
170.25025129654244
  0
ARC
  8
default
 10
-4.2632564145606011e-014
 20
-4.787281682183675e-013
 30
0
 40
69.999999999999957
 50
174.74974870345724
 51
179.9999999999996
  0
ARC
  8
default
 10
-1.4210854715202004e-014
 20
4.9915627187147038e-013
 30
0
 40
69.999999999999986
 50
180.0000000000004
 51
185.25025129654276
  0
ARC
  8
default
 10
0
 20
-5.3290705182007514e-015
 30
0
 40
70
 50
189.74974870345756
 51
200.2502512965423
  0
ARC
  8
default
 10
2.8421709430404007e-014
 20
0
 30
0
 40
70
 50
204.74974870345761
 51
215.25025129654233
  0
ARC
  8
default
 10
2.8421709430404007e-013
 20
-2.0605739337042905e-013
 30
0
 40
70.000000000000043
 50
219.74974870345733
 51
230.25025129654202
  0
ARC
  8
default
 10
-2.9132252166164108e-013
 20
1.4921397450962104e-013
 30
0
 40
69.999999999999986
 50
234.74974870345787
 51
245.25025129654261
  0
ARC
  8
default
 10
9.2370555648813024e-014
 20
1.4210854715202004e-014
 30
0
 40
70.000000000000043
 50
249.74974870345761
 51
260.25025129654227
  0
ARC
  8
default
 10
1.5099033134902129e-014
 20
2.8421709430404007e-014
 30
0
 40
69.999999999999986
 50
264.74974870345761
 51
275.25025129654239
  0
ARC
  8
default
 10
1.0835776720341528e-013
 20
1.4210854715202004e-014
 30
0
 40
70.000000000000014
 50
279.74974870345756
 51
290.25025129654227
  0
ARC
  8
default
 10
-2.1316282072803006e-014
 20
6.3948846218409017e-014
 30
0
 40
70.000000000000043
 50
294.74974870345761
 51
305.25025129654233
  0
ARC
  8
default
 10
1.7763568394002505e-013
 20
3.1263880373444408e-013
 30
0
 40
70.000000000000085
 50
309.74974870345733
 51
320.25025129654205
  0
ARC
  8
default
 10
-1.9895196601282805e-013
 20
-2.6290081223123707e-013
 30
0
 40
70.000000000000043
 50
324.74974870345784
 51
335.25025129654261
  0
ARC
  8
default
 10
-4.2632564145606011e-014
 20
9.9475983006414026e-014
 30
0
 40
70.000000000000071
 50
339.74974870345761
 51
350.25025129654227
  0
ARC
  8
default
 10
-1.4210854715202004e-014
 20
4.82280881897168e-013
 30
0
 40
70.000000000000028
 50
354.74974870345721
 51
359.9999999999996
  0
ARC
  8
default
 10
0
 20
0
 30
0
 40
105
 50
0
 51
180
  0
ARC
  8
default
 10
0
 20
0
 30
0
 40
105
 50
180
 51
0
  0
ARC
  8
default
 10
50.678047130935873
 20
75.816356413297299
 30
0
 40
0.99999999999999845
 50
52.499999999999822
 51
146.86827743458846
  0
ARC
  8
default
 10
60.11653294865129
 20
68.573951519707535
 30
0
 40
1.0000000000000053
 50
318.13172256541139
 51
52.499999999999822
  0
ARC
  8
default
 10
40.81120225167934
 20
60.698949323168037
 30
0
 40
0.99999999999999989
 50
146.86827743458846
 51
232.49999999999983
  0
ARC
  8
default
 10
48.067966383593905
 20
55.130638359352332
 30
0
 40
0.99999999999999756
 50
232.49999999999983
 51
318.13172256541145
  0
ARC
  8
default
 10
29.328517579623572
 20
86.349420480830034
 30
0
 40
0.99999999999999656
 50
67.499999999999744
 51
161.86827743458832
  0
ARC
  8
default
 10
40.319867110822742
 20
81.796654436224188
 30
0
 40
1.0000000000000093
 50
333.13172256541168
 51
67.500000000000057
  0
ARC
  8
default
 10
23.710550154255003
 20
69.193399176124899
 30
0
 40
0.99999999999999933
 50
161.86827743458841
 51
247.49999999999898
  0
ARC
  8
default
 10
32.161230971048155
 20
65.693012570523024
 30
0
 40
1.0000000000000016
 50
247.50000000000156
 51
333.13172256541219
  0
ARC
  8
default
 10
17.775468961122499
 20
89.445050528274876
 30
0
 40
1.0000000000000029
 50
348.13172256541122
 51
82.499999999999702
  0
ARC
  8
default
 10
5.980298022926922
 20
90.997914241758608
 30
0
 40
0.99999999999999678
 50
82.499999999999645
 51
176.86827743458807
  0
ARC
  8
default
 10
4.9940632473549824
 20
72.972433222727418
 30
0
 40
1.0000000000000002
 50
176.86827743458812
 51
262.50000000000023
  0
ARC
  8
default
 10
14.062760816772597
 20
71.778516537848901
 30
0
 40
0.99999999999999589
 50
262.50000000000011
 51
348.13172256541111
  0
ARC
  8
default
 10
-5.9802980229268821
 20
90.997914241758608
 30
0
 40
0.99999999999999678
 50
3.1317225654119092
 51
97.500000000000341
  0
ARC
  8
default
 10
-17.775468961122506
 20
89.445050528274862
 30
0
 40
0.99999999999999489
 50
97.499999999999901
 51
191.86827743458809
  0
ARC
  8
default
 10
-4.9940632473549531
 20
72.972433222727489
 30
0
 40
1.0000000000000036
 50
277.50000000000193
 51
3.1317225654118857
  0
ARC
  8
default
 10
-14.062760816772597
 20
71.778516537848901
 30
0
 40
0.99999999999999589
 50
191.86827743458889
 51
277.49999999999989
  0
ARC
  8
default
 10
-29.328517579623572
 20
86.349420480830034
 30
0
 40
0.99999999999999656
 50
18.131722565411668
 51
112.50000000000027
  0
ARC
  8
default
 10
-40.319867110822742
 20
81.796654436224188
 30
0
 40
1.0000000000000056
 50
112.49999999999994
 51
206.86827743458852
  0
ARC
  8
default
 10
-32.16123097104807
 20
65.693012570523038
 30
0
 40
0.99999999999999989
 50
206.86827743458869
 51
292.49999999999937
  0
ARC
  8
default
 10
-23.710550154255003
 20
69.193399176124899
 30
0
 40
0.99999999999999933
 50
292.50000000000102
 51
18.131722565411607
  0
ARC
  8
default
 10
-50.678047130935873
 20
75.816356413297299
 30
0
 40
0.99999999999999845
 50
33.131722565411565
 51
127.50000000000018
  0
ARC
  8
default
 10
-60.11653294865129
 20
68.573951519707535
 30
0
 40
1.0000000000000053
 50
127.50000000000018
 51
221.86827743458858
  0
ARC
  8
default
 10
-48.067966383593905
 20
55.130638359352332
 30
0
 40
0.99999999999999756
 50
221.86827743458855
 51
307.50000000000017
  0
ARC
  8
default
 10
-40.81120225167934
 20
60.698949323168037
 30
0
 40
1
 50
307.50000000000017
 51
33.131722565411565
  0
ARC
  8
default
 10
-68.573951519707535
 20
60.11653294865129
 30
0
 40
1.0000000000000053
 50
48.131722565411422
 51
142.4999999999998
  0
ARC
  8
default
 10
-75.816356413297299
 20
50.678047130935873
 30
0
 40
0.99999999999999845
 50
142.4999999999998
 51
236.86827743458844
  0
ARC
  8
default
 10
-55.130638359352332
 20
48.067966383593905
 30
0
 40
0.99999999999999756
 50
322.49999999999983
 51
48.131722565411451
  0
ARC
  8
default
 10
-60.698949323168037
 20
40.81120225167934
 30
0
 40
0.99999999999999989
 50
236.86827743458844
 51
322.49999999999983
  0
ARC
  8
default
 10
-81.796654436224188
 20
40.319867110822742
 30
0
 40
1.0000000000000095
 50
63.131722565411671
 51
157.50000000000006
  0
ARC
  8
default
 10
-65.693012570523024
 20
32.161230971048155
 30
0
 40
1.0000000000000016
 50
337.50000000000153
 51
63.131722565412204
  0
ARC
  8
default
 10
-86.349420480830034
 20
29.328517579623572
 30
0
 40
0.99999999999999656
 50
157.49999999999974
 51
251.86827743458832
  0
ARC
  8
default
 10
-69.193399176124899
 20
23.710550154255003
 30
0
 40
0.99999999999999933
 50
251.86827743458838
 51
337.49999999999898
  0
ARC
  8
default
 10
-71.778516537848901
 20
14.062760816772597
 30
0
 40
0.99999999999999589
 50
352.50000000000011
 51
78.13172256541111
  0
ARC
  8
default
 10
-89.445050528274876
 20
17.775468961122499
 30
0
 40
1.0000000000000029
 50
78.131722565411209
 51
172.49999999999969
  0
ARC
  8
default
 10
-90.997914241758608
 20
5.9802980229269016
 30
0
 40
0.99999999999999678
 50
172.49999999999966
 51
266.86827743458809
  0
ARC
  8
default
 10
-72.972433222727418
 20
4.9940632473549718
 30
0
 40
1.0000000000000002
 50
266.86827743458809
 51
352.50000000000023
  0
ARC
  8
default
 10
-90.997914241758608
 20
-5.9802980229268821
 30
0
 40
0.99999999999999678
 50
93.131722565411906
 51
187.50000000000034
  0
ARC
  8
default
 10
-72.972433222727489
 20
-4.9940632473549531
 30
0
 40
1.0000000000000036
 50
7.500000000001914
 51
93.131722565411891
  0
ARC
  8
default
 10
-89.445050528274862
 20
-17.775468961122506
 30
0
 40
0.99999999999999489
 50
187.49999999999989
 51
281.86827743458804
  0
ARC
  8
default
 10
-71.778516537848901
 20
-14.062760816772597
 30
0
 40
0.99999999999999589
 50
281.86827743458889
 51
7.4999999999998961
  0
ARC
  8
default
 10
-69.193399176124899
 20
-23.710550154255003
 30
0
 40
0.99999999999999933
 50
22.500000000001009
 51
108.13172256541161
  0
ARC
  8
default
 10
-86.349420480830034
 20
-29.328517579623572
 30
0
 40
0.99999999999999656
 50
108.13172256541166
 51
202.50000000000026
  0
ARC
  8
default
 10
-65.693012570523038
 20
-32.16123097104807
 30
0
 40
0.99999999999999967
 50
296.86827743458872
 51
22.499999999999382
  0
ARC
  8
default
 10
-81.796654436224188
 20
-40.319867110822742
 30
0
 40
1.0000000000000056
 50
202.49999999999994
 51
296.86827743458855
  0
ARC
  8
default
 10
-60.698949323168037
 20
-40.81120225167934
 30
0
 40
1
 50
37.500000000000178
 51
123.13172256541158
  0
ARC
  8
default
 10
-75.816356413297299
 20
-50.678047130935873
 30
0
 40
0.99999999999999845
 50
123.13172256541158
 51
217.5000000000002
  0
ARC
  8
default
 10
-55.130638359352332
 20
-48.067966383593905
 30
0
 40
0.99999999999999734
 50
311.86827743458855
 51
37.500000000000178
  0
ARC
  8
default
 10
-68.573951519707535
 20
-60.11653294865129
 30
0
 40
1.0000000000000053
 50
217.5000000000002
 51
311.86827743458855
  0
ARC
  8
default
 10
-48.067966383593884
 20
-55.130638359352311
 30
0
 40
0.99999999999999922
 50
52.500000000001855
 51
138.13172256541174
  0
ARC
  8
default
 10
-60.116532948651283
 20
-68.573951519707535
 30
0
 40
1.0000000000000027
 50
138.13172256541142
 51
232.49999999999983
  0
ARC
  8
default
 10
-50.678047130935873
 20
-75.816356413297214
 30
0
 40
1.0000000000000024
 50
232.49999999999983
 51
326.86827743458844
  0
ARC
  8
default
 10
-40.81120225167934
 20
-60.698949323168037
 30
0
 40
0.99999999999999867
 50
326.86827743458844
 51
52.499999999999822
  0
ARC
  8
default
 10
-32.16123097104807
 20
-65.693012570523038
 30
0
 40
0.99999999999999967
 50
67.500000000000625
 51
153.13172256541131
  0
ARC
  8
default
 10
-40.319867110822742
 20
-81.796654436224188
 30
0
 40
1.000000000000006
 50
153.13172256541148
 51
247.50000000000006
  0
ARC
  8
default
 10
-23.710550154255003
 20
-69.193399176124899
 30
0
 40
0.99999999999999933
 50
341.86827743458838
 51
67.499999999998991
  0
ARC
  8
default
 10
-29.328517579623572
 20
-86.349420480830034
 30
0
 40
0.99999999999999656
 50
247.49999999999972
 51
341.86827743458832
  0
ARC
  8
default
 10
-14.062760816772597
 20
-71.778516537848901
 30
0
 40
0.99999999999999589
 50
82.500000000000114
 51
168.13172256541111
  0
ARC
  8
default
 10
-4.9940632473549726
 20
-72.972433222727418
 30
0
 40
1.0000000000000004
 50
356.86827743458809
 51
82.500000000000313
  0
ARC
  8
default
 10
-17.775468961122499
 20
-89.445050528274876
 30
0
 40
1.0000000000000031
 50
168.13172256541122
 51
262.49999999999972
  0
ARC
  8
default
 10
-5.9802980229269123
 20
-90.997914241758608
 30
0
 40
0.999999999999997
 50
262.49999999999966
 51
356.86827743458809
  0
ARC
  8
default
 10
4.9940632473550126
 20
-72.972433222727418
 30
0
 40
1.0000000000000002
 50
97.499999999999744
 51
183.13172256541188
  0
ARC
  8
default
 10
14.06276081677259
 20
-71.778516537848901
 30
0
 40
1.0000000000000016
 50
11.868277434588006
 51
97.499999999999702
  0
ARC
  8
default
 10
5.9802980229269522
 20
-90.997914241758608
 30
0
 40
0.99999999999999678
 50
183.13172256541193
 51
277.5000000000004
  0
ARC
  8
default
 10
17.775468961122499
 20
-89.445050528274876
 30
0
 40
1.0000000000000029
 50
277.50000000000028
 51
11.868277434588782
  0
ARC
  8
default
 10
23.710550154255003
 20
-69.193399176124899
 30
0
 40
0.99999999999999933
 50
112.50000000000101
 51
198.13172256541159
  0
ARC
  8
default
 10
29.328517579623572
 20
-86.349420480830034
 30
0
 40
0.99999999999999656
 50
198.13172256541168
 51
292.50000000000023
  0
ARC
  8
default
 10
40.319867110822742
 20
-81.796654436224188
 30
0
 40
1.0000000000000093
 50
292.49999999999994
 51
26.86827743458834
  0
ARC
  8
default
 10
32.161230971048155
 20
-65.693012570523024
 30
0
 40
1.0000000000000016
 50
26.868277434587799
 51
112.49999999999844
  0
ARC
  8
default
 10
40.81120225167934
 20
-60.698949323168037
 30
0
 40
1
 50
127.50000000000018
 51
213.13172256541154
  0
ARC
  8
default
 10
50.678047130935873
 20
-75.816356413297299
 30
0
 40
0.99999999999999845
 50
213.13172256541154
 51
307.50000000000017
  0
ARC
  8
default
 10
60.11653294865129
 20
-68.573951519707535
 30
0
 40
1.0000000000000053
 50
307.50000000000017
 51
41.868277434588592
  0
ARC
  8
default
 10
48.067966383593905
 20
-55.130638359352332
 30
0
 40
0.99999999999999756
 50
41.868277434588556
 51
127.50000000000018
  0
ARC
  8
default
 10
60.698949323168037
 20
-40.81120225167934
 30
0
 40
0.99999999999999833
 50
56.868277434588435
 51
142.4999999999998
  0
ARC
  8
default
 10
55.130638359352311
 20
-48.067966383593884
 30
0
 40
0.99999999999999922
 50
142.50000000000185
 51
228.13172256541171
  0
ARC
  8
default
 10
68.573951519707535
 20
-60.116532948651283
 30
0
 40
1.0000000000000027
 50
228.13172256541142
 51
322.49999999999983
  0
ARC
  8
default
 10
75.816356413297214
 20
-50.678047130935873
 30
0
 40
1.0000000000000024
 50
322.49999999999983
 51
56.868277434588435
  0
ARC
  8
default
 10
69.193399176124899
 20
-23.710550154255003
 30
0
 40
0.99999999999999933
 50
71.868277434588393
 51
157.49999999999901
  0
ARC
  8
default
 10
65.693012570523038
 20
-32.16123097104807
 30
0
 40
0.99999999999999967
 50
157.50000000000065
 51
243.13172256541128
  0
ARC
  8
default
 10
81.796654436224188
 20
-40.319867110822742
 30
0
 40
1.000000000000006
 50
243.13172256541145
 51
337.50000000000006
  0
ARC
  8
default
 10
86.349420480830034
 20
-29.328517579623572
 30
0
 40
0.99999999999999656
 50
337.49999999999972
 51
71.868277434588336
  0
ARC
  8
default
 10
72.972433222727418
 20
-4.9940632473549815
 30
0
 40
1.0000000000000007
 50
86.868277434588094
 51
172.50000000000031
  0
ARC
  8
default
 10
71.778516537848901
 20
-14.062760816772597
 30
0
 40
0.99999999999999589
 50
172.50000000000011
 51
258.13172256541111
  0
ARC
  8
default
 10
89.445050528274876
 20
-17.775468961122499
 30
0
 40
1.0000000000000031
 50
258.13172256541122
 51
352.49999999999972
  0
ARC
  8
default
 10
90.997914241758608
 20
-5.9802980229269123
 30
0
 40
0.99999999999999678
 50
352.49999999999966
 51
86.868277434588094
  0
ARC
  8
default
 10
71.778516537848901
 20
14.06276081677249
 30
0
 40
1.0000000000000016
 50
101.86827743458801
 51
187.49999999999969
  0
ARC
  8
default
 10
72.972433222727489
 20
4.9940632473549433
 30
0
 40
1.0000000000000038
 50
187.50000000000193
 51
273.13172256541191
  0
ARC
  8
default
 10
90.997914241758608
 20
5.9802980229268723
 30
0
 40
0.99999999999999656
 50
273.13172256541191
 51
7.5000000000003997
  0
ARC
  8
default
 10
89.445050528274876
 20
17.775468961122399
 30
0
 40
1.0000000000000029
 50
7.5000000000003002
 51
101.86827743458878
  0
ARC
  8
default
 10
65.693012570523038
 20
32.16123097104807
 30
0
 40
0.99999999999999967
 50
116.86827743458872
 51
202.49999999999935
  0
ARC
  8
default
 10
69.193399176124899
 20
23.710550154255003
 30
0
 40
0.99999999999999933
 50
202.50000000000099
 51
288.13172256541162
  0
ARC
  8
default
 10
86.349420480830034
 20
29.328517579623572
 30
0
 40
0.99999999999999656
 50
288.13172256541168
 51
22.500000000000259
  0
ARC
  8
default
 10
81.796654436224188
 20
40.319867110822742
 30
0
 40
1.0000000000000056
 50
22.499999999999947
 51
116.86827743458853
  0
ARC
  8
default
 10
68.573951519707535
 20
60.11653294865129
 30
0
 40
1.0000000000000053
 50
37.500000000000178
 51
131.86827743458858
  0
ARC
  8
default
 10
55.130638359352332
 20
48.067966383593905
 30
0
 40
0.99999999999999756
 50
131.86827743458855
 51
217.5000000000002
  0
ARC
  8
default
 10
60.698949323168037
 20
40.81120225167934
 30
0
 40
1
 50
217.5000000000002
 51
303.13172256541156
  0
ARC
  8
default
 10
75.816356413297299
 20
50.678047130935873
 30
0
 40
0.99999999999999845
 50
303.13172256541156
 51
37.500000000000178
  0
ENDSEC
  0
EOF
